<?xml version="1.0" encoding="UTF-8" standalone="no"?>
<svg
        viewBox="0 -960 960 960"
        version="1.1"
        id="svg59"
        sodipodi:docname="visibility_FILL0_wght400_GRAD0_opsz24 (copy)a.svg"
        inkscape:version="1.1.2 (0a00cf5339, 2022-02-04)"
        xmlns:inkscape="http://www.inkscape.org/namespaces/inkscape"
        xmlns:sodipodi="http://sodipodi.sourceforge.net/DTD/sodipodi-0.dtd"
        xmlns="http://www.w3.org/2000/svg"
        xmlns:svg="http://www.w3.org/2000/svg">
  <defs
          id="defs63"/>
  <sodipodi:namedview
          id="namedview61"
          pagecolor="#ffffff"
          bordercolor="#666666"
          borderopacity="1.0"
          inkscape:pageshadow="2"
          inkscape:pageopacity="0.0"
          inkscape:pagecheckerboard="0"
          showgrid="false"
          inkscape:zoom="8.3020833"
          inkscape:cx="86.484316"
          inkscape:cy="-1.9874529"
          inkscape:window-width="1920"
          inkscape:window-height="1008"
          inkscape:window-x="0"
          inkscape:window-y="0"
          inkscape:window-maximized="1"
          inkscape:current-layer="svg59"/>
  <path
          d="M480-320q75 0 127.5-52.5T660-500q0-75-52.5-127.5T480-680q-75 0-127.5 52.5T300-500q0 75 52.5 127.5T480-320Zm0-72q-45 0-76.5-31.5T372-500q0-45 31.5-76.5T480-608q45 0 76.5 31.5T588-500q0 45-31.5 76.5T480-392Zm0 192q-146 0-266-81.5T40-500q54-137 174-218.5T480-800q146 0 266 81.5T920-500q-54 137-174 218.5T480-200Zm0-300Zm0 220q113 0 207.5-59.5T832-500q-50-101-144.5-160.5T480-720q-113 0-207.5 59.5T128-500q50 101 144.5 160.5T480-280Z"
          id="path57"/>
  <text
          xml:space="preserve"
          style="font-style:normal;font-weight:normal;font-size:206.766px;line-height:1.25;font-family:sans-serif;fill:#000000;fill-opacity:1;stroke:none;stroke-width:5.16912"
          x="244.58435"
          y="-22.643353"
          id="text5053"
          transform="scale(1.0122417,0.98790635)"><tspan
       sodipodi:role="line"
       id="tspan5051"
       style="stroke-width:5.16912"
       x="244.58435"
       y="-22.643353">SMV</tspan></text>
</svg>
